<?xml version="1.0" encoding="utf-8"?>
<svg viewBox="0 218.397 512 75.207" xmlns="http://www.w3.org/2000/svg">
    <style>
        .ara {
            fill: rgb(51,51,51);
        }
        @media (prefers-color-scheme: dark) {
            .ara { fill: #ffffff; }
        }
    </style>
    <path class="ara" fill="currentColor" d="M 24.672 293.604 C 17.021 293.604 10.995 291.646 6.597 287.732 C 2.2 283.818 0 278.519 0 271.833 C 0 265.059 2.2 259.739 6.597 255.868 C 10.995 251.998 16.933 250.062 24.409 250.062 L 46.839 250.062 L 46.839 242.806 C 46.839 238.321 45.498 234.868 42.814 232.449 C 40.132 230.03 36.327 228.82 31.403 228.82 C 27.091 228.82 23.485 229.722 20.582 231.524 C 17.681 233.328 16.008 235.768 15.569 238.848 L 3.694 238.848 C 4.486 232.603 7.432 227.633 12.535 223.939 C 17.636 220.244 24.014 218.397 31.665 218.397 C 40.022 218.397 46.619 220.552 51.458 224.861 C 56.294 229.173 58.713 235.022 58.713 242.411 L 58.713 292.284 L 47.103 292.284 L 47.103 278.431 L 45.125 278.431 L 47.103 276.45 C 47.103 281.729 45.057 285.908 40.967 288.985 C 36.877 292.064 31.446 293.604 24.672 293.604 Z M 27.575 284.235 C 33.205 284.235 37.824 282.828 41.43 280.013 C 45.036 277.199 46.839 273.592 46.839 269.195 L 46.839 258.903 L 24.672 258.903 C 20.715 258.903 17.593 260.002 15.305 262.201 C 13.019 264.401 11.875 267.391 11.875 271.173 C 11.875 275.22 13.261 278.408 16.031 280.739 C 18.802 283.07 22.65 284.235 27.575 284.235 Z M 162.743 292.284 L 162.743 219.717 L 174.354 219.717 L 174.354 233.57 L 177.124 233.57 L 173.298 242.146 C 173.298 234.319 174.991 228.402 178.378 224.4 C 181.763 220.398 186.8 218.397 193.484 218.397 C 201.137 218.397 207.228 220.794 211.759 225.587 C 216.288 230.382 218.554 236.869 218.554 245.049 L 218.554 249.404 L 206.679 249.404 L 206.679 246.105 C 206.679 240.387 205.293 236.01 202.523 232.976 C 199.752 229.942 195.815 228.424 190.714 228.424 C 185.7 228.424 181.763 229.964 178.905 233.042 C 176.047 236.121 174.618 240.475 174.618 246.105 L 174.618 292.284 L 162.743 292.284 Z M 338.023 293.604 C 330.37 293.604 324.344 291.646 319.947 287.732 C 315.549 283.818 313.349 278.519 313.349 271.833 C 313.349 265.059 315.549 259.739 319.947 255.868 C 324.344 251.998 330.282 250.062 337.759 250.062 L 360.188 250.062 L 360.188 242.806 C 360.188 238.321 358.847 234.868 356.165 232.449 C 353.482 230.03 349.678 228.82 344.752 228.82 C 340.442 228.82 336.836 229.722 333.933 231.524 C 331.03 233.328 329.359 235.768 328.918 238.848 L 317.044 238.848 C 317.835 232.603 320.783 227.633 325.884 223.939 C 330.985 220.244 337.363 218.397 345.016 218.397 C 353.371 218.397 359.968 220.552 364.807 224.861 C 369.645 229.173 372.063 235.022 372.063 242.411 L 372.063 292.284 L 360.452 292.284 L 360.452 278.431 L 358.474 278.431 L 360.452 276.45 C 360.452 281.729 358.408 285.908 354.318 288.985 C 350.228 292.064 344.795 293.604 338.023 293.604 Z M 340.926 284.235 C 346.554 284.235 351.173 282.828 354.779 280.013 C 358.386 277.199 360.188 273.592 360.188 269.195 L 360.188 258.903 L 338.023 258.903 C 334.064 258.903 330.942 260.002 328.656 262.201 C 326.368 264.401 325.224 267.391 325.224 271.173 C 325.224 275.22 326.61 278.408 329.381 280.739 C 332.151 283.07 336 284.235 340.926 284.235 Z"/>
    <path d="M 501.05 293.604 C 497.706 293.604 495.045 292.636 493.066 290.701 C 491.088 288.766 490.098 286.17 490.098 282.916 C 490.098 279.486 491.088 276.76 493.066 274.736 C 495.045 272.713 497.706 271.702 501.05 271.702 C 504.392 271.702 507.053 272.713 509.031 274.736 C 511.01 276.76 512 279.486 512 282.916 C 512 286.17 511.01 288.766 509.031 290.701 C 507.053 292.636 504.392 293.604 501.05 293.604 Z" style="fill: rgb(236, 28, 36)"/>
</svg>
